# xmcd
#
# Track frame offsets: 
#        182
#        15370
#        27260
#        43345
#        62057
#        73932
#        84835
#        98657
#        113815
#        126877
#        145525
#        159092
#        173992
#        189382
#        203995
#        216865
#        227690
#        238922
#
# Disc length: 3324 seconds
#
# Revision: 1
# Processed by: cddbd v1.5.2PL0 Copyright (c) Steve Scherf et al.
# Submitted via: ExactAudioCopy v1.0b3
#
DISCID=f10cfa12
DTITLE=Rogers, Kenny - Ruby Don't Take Your Love To Town
DYEAR=1995
DGENRE=Country
TTITLE0=Just Dropped In (To See What Condition My Condition Was In)
TTITLE1=Me And Bobby McGee
TTITLE2=The Way It Used To Be
TTITLE3=The King Of Oak Street
TTITLE4=A Poem For My Little Lady
TTITLE5=Always Leaving Always Gone
TTITLE6=But You Know I Love You
TTITLE7=Tell It All Brother
TTITLE8=Sleep Comes Easy
TTITLE9=I Believe In Music
TTITLE10=Ruby Don't Take Your Love To Town
TTITLE11=Heed The Call
TTITLE12=For The Good Times
TTITLE13=Church Without A Name
TTITLE14=Run Through Your Mind
TTITLE15=She Even Woke Me Up To Say Goodbye
TTITLE16=Hurry Up Love
TTITLE17=Ticket To Nowhere
EXTD=
EXTT0=
EXTT1=
EXTT2=
EXTT3=
EXTT4=
EXTT5=
EXTT6=
EXTT7=
EXTT8=
EXTT9=
EXTT10=
EXTT11=
EXTT12=
EXTT13=
EXTT14=
EXTT15=
EXTT16=
EXTT17=
PLAYORDER=
